<svg width="18" height="19" viewBox="0 0 18 19" fill="none" xmlns="http://www.w3.org/2000/svg">
<path d="M15.9779 4.5668H12.9981C13.7221 4.56578 14.3242 3.94824 14.3252 3.19199C14.3262 2.43574 13.74 1.82349 13.016 1.82452C13.0171 0.974114 12.2758 0.305795 11.4308 0.486905C10.8156 0.61875 10.3908 1.21524 10.3908 1.8713V2.14691C10.1926 1.96025 9.93304 1.84334 9.64582 1.84334H8.15592C7.8687 1.84334 7.60913 1.96025 7.41098 2.14691V1.8713C7.41098 1.21519 6.98617 0.61875 6.37089 0.486857C5.52594 0.305746 4.78458 0.974065 4.78565 1.82447C4.0617 1.82345 3.47556 2.43569 3.4765 3.19194C3.47752 3.94824 4.07967 4.56578 4.80366 4.5668H1.82388C1.00104 4.5668 0.333984 5.26357 0.333984 6.12307V6.51214C0.333984 7.37163 1.00104 8.0684 1.82388 8.0684H6.29356V8.84654H1.4514V16.6901C1.4514 17.5152 2.09178 18.1841 2.8817 18.1841H6.29356C6.705 18.1841 7.0385 17.8358 7.0385 17.406V4.95587H10.7632V17.406C10.7632 17.8358 11.0967 18.1841 11.5082 18.1841H14.92C15.71 18.1841 16.3503 17.5152 16.3503 16.6901V8.84654H11.5082V8.0684H15.9779C16.8007 8.0684 17.4678 7.37163 17.4678 6.51214V6.12307C17.4678 5.26357 16.8007 4.5668 15.9779 4.5668ZM7.78345 4.17774V3.01054C7.78345 2.79606 7.95041 2.62147 8.15592 2.62147H9.64582C9.85133 2.62147 10.0183 2.79606 10.0183 3.01054V4.17774H7.78345Z" fill="url(#paint0_linear_1030_118871)"/>
<defs>
<linearGradient id="paint0_linear_1030_118871" x1="8.90087" y1="0.457031" x2="8.90087" y2="18.1841" gradientUnits="userSpaceOnUse">
<stop stop-color="#FF0000"/>
<stop offset="1" stop-color="#9D0C0C"/>
</linearGradient>
</defs>
</svg>
