<svg width="17" height="17" viewBox="0 0 17 17" fill="none" xmlns="http://www.w3.org/2000/svg">
<path d="M7.16705 4.97503C8.04716 3.39703 8.48681 2.60763 9.14464 2.60763C9.80248 2.60763 10.2421 3.39703 11.1222 4.97503L11.3494 5.38362C11.5995 5.83226 11.7253 6.05617 11.9198 6.20408C12.1143 6.35199 12.357 6.40674 12.8432 6.51706L13.2845 6.61676C14.9933 7.00329 15.848 7.19696 16.0507 7.85071C16.2542 8.50446 15.6715 9.18518 14.5062 10.5474L14.2055 10.8988C13.8745 11.2862 13.7095 11.4798 13.6343 11.7193C13.5607 11.9587 13.5852 12.2169 13.6351 12.7326L13.6809 13.2033C13.8574 15.0207 13.9448 15.9294 13.4128 16.3331C12.8808 16.7376 12.0808 16.3691 10.4816 15.6328L10.0673 15.4416C9.61289 15.2324 9.38572 15.1278 9.14464 15.1278C8.90357 15.1278 8.6764 15.2324 8.22122 15.4416L7.80772 15.6328C6.20849 16.3683 5.40846 16.7376 4.87647 16.3331C4.34448 15.9294 4.43274 15.0207 4.60843 13.2033L4.6542 12.7334C4.70404 12.2169 4.72938 11.9587 4.6542 11.7201C4.58065 11.4798 4.41476 11.287 4.0838 10.8996L3.78226 10.5466C2.61776 9.18518 2.03511 8.50364 2.23777 7.84989C2.44207 7.19614 3.29603 7.00329 5.00477 6.61676L5.44605 6.51706C5.93228 6.40674 6.17498 6.35199 6.36947 6.20408C6.56478 6.05698 6.68981 5.83226 6.93987 5.38362L7.16705 4.97503ZM2.90786 0.56466C2.93238 0.478856 3.08519 0.478038 3.11053 0.56466C3.22493 0.958545 3.4374 1.54038 3.75856 1.8599C4.07971 2.17861 4.664 2.38699 5.05789 2.49895C5.14533 2.52346 5.14533 2.67709 5.05952 2.70243C4.66564 2.81683 4.08298 3.0293 3.76346 3.35046C3.44476 3.67161 3.23637 4.2559 3.12442 4.64979C3.0999 4.73641 2.94627 4.73722 2.92094 4.6506C2.80653 4.25672 2.59406 3.67488 2.27291 3.35536C1.95175 3.03665 1.36828 2.82827 0.97358 2.71632C0.886958 2.6918 0.886141 2.53817 0.972762 2.51284C1.36665 2.39843 1.94849 2.18596 2.26801 1.86481C2.58671 1.54365 2.79591 0.958545 2.90786 0.56466Z" fill="#25FFF2"/>
<path fill-rule="evenodd" clip-rule="evenodd" d="M14.4555 1.17578C14.618 1.17578 14.7739 1.24035 14.8889 1.35529C15.0038 1.47023 15.0684 1.62612 15.0684 1.78867V1.99297H15.2727C15.4352 1.99297 15.5911 2.05754 15.706 2.17248C15.821 2.28742 15.8855 2.44331 15.8855 2.60586C15.8855 2.76841 15.821 2.9243 15.706 3.03924C15.5911 3.15418 15.4352 3.21875 15.2727 3.21875H15.0684V3.42305C15.0684 3.5856 15.0038 3.74149 14.8889 3.85643C14.7739 3.97137 14.618 4.03594 14.4555 4.03594C14.2929 4.03594 14.137 3.97137 14.0221 3.85643C13.9072 3.74149 13.8426 3.5856 13.8426 3.42305V3.21875H13.6383C13.4757 3.21875 13.3198 3.15418 13.2049 3.03924C13.09 2.9243 13.0254 2.76841 13.0254 2.60586C13.0254 2.44331 13.09 2.28742 13.2049 2.17248C13.3198 2.05754 13.4757 1.99297 13.6383 1.99297H13.8426V1.78867C13.8426 1.62612 13.9072 1.47023 14.0221 1.35529C14.137 1.24035 14.2929 1.17578 14.4555 1.17578Z" fill="#25FFF2"/>
</svg>
