<svg width="20" height="20" viewBox="0 0 20 20" fill="none" xmlns="http://www.w3.org/2000/svg">
<path d="M5.83594 14.9997V13.333M10.0026 14.9997V12.4997M14.1693 14.9997V10.833M2.08594 9.99967C2.08594 6.26772 2.08594 4.40175 3.2453 3.24237C4.40468 2.08301 6.27065 2.08301 10.0026 2.08301C13.7345 2.08301 15.6005 2.08301 16.7599 3.24237C17.9193 4.40175 17.9193 6.26772 17.9193 9.99967C17.9193 13.7316 17.9193 15.5976 16.7599 16.757C15.6005 17.9163 13.7345 17.9163 10.0026 17.9163C6.27065 17.9163 4.40468 17.9163 3.2453 16.757C2.08594 15.5976 2.08594 13.7316 2.08594 9.99967Z" stroke="#4B5563" stroke-width="1.25" stroke-linecap="round" stroke-linejoin="round"/>
<path d="M4.99219 9.57208C6.7881 9.63192 10.8604 9.36083 13.1768 5.6846M11.6589 5.24046L13.2219 4.98891C13.4124 4.96465 13.692 5.11504 13.7608 5.29431L14.174 6.65968" stroke="#4B5563" stroke-width="1.25" stroke-linecap="round" stroke-linejoin="round"/>
</svg>
