<svg width="20" height="20" viewBox="0 0 20 20" fill="none" xmlns="http://www.w3.org/2000/svg">
<path d="M16.4557 9.16699V8.33366C16.4557 5.19096 16.4557 3.61962 15.4794 2.6433C14.503 1.66699 12.9317 1.66699 9.78903 1.66699H8.95578C5.81309 1.66699 4.24175 1.66699 3.26544 2.64329C2.28913 3.61959 2.28911 5.19093 2.28909 8.3336L2.28906 11.667C2.28903 14.8097 2.28902 16.381 3.2653 17.3573C4.2416 18.3336 5.813 18.3337 8.9557 18.3337" stroke="#4B5563" stroke-width="1.25" stroke-linecap="round" stroke-linejoin="round"/>
<path d="M6.03906 5.83301H12.7057M6.03906 9.99967H12.7057" stroke="#4B5563" stroke-width="1.25" stroke-linecap="round"/>
<path d="M11.0391 17.356V18.3337H12.0169C12.3581 18.3337 12.5286 18.3337 12.682 18.2702C12.8354 18.2066 12.956 18.086 13.1972 17.8448L17.2169 13.8248C17.4444 13.5973 17.5581 13.4836 17.619 13.3609C17.7347 13.1274 17.7347 12.8533 17.619 12.6198C17.5581 12.4971 17.4444 12.3833 17.2169 12.1558C16.9893 11.9283 16.8756 11.8146 16.7528 11.7537C16.5193 11.6381 16.2451 11.6381 16.0116 11.7537C15.889 11.8146 15.7751 11.9283 15.5476 12.1558L11.528 16.1758C11.2867 16.417 11.1661 16.5376 11.1026 16.6909C11.0391 16.8443 11.0391 17.0148 11.0391 17.356Z" stroke="#4B5563" stroke-width="1.25" stroke-linejoin="round"/>
</svg>
