<svg width="20" height="20" viewBox="0 0 20 20" fill="none" xmlns="http://www.w3.org/2000/svg">
<path d="M5.83333 15.8337H4.16667C3.72464 15.8337 3.30072 15.6581 2.98816 15.3455C2.67559 15.0329 2.5 14.609 2.5 14.167V5.83366C2.5 5.39163 2.67559 4.96771 2.98816 4.65515C3.30072 4.34259 3.72464 4.16699 4.16667 4.16699H5.83333" stroke="#222222" stroke-width="1.25" stroke-linecap="round" stroke-linejoin="round"/>
<path d="M6.66406 9.99935C6.66406 10.8834 7.01525 11.7313 7.64037 12.3564C8.26549 12.9815 9.11334 13.3327 9.9974 13.3327C10.8815 13.3327 11.7293 12.9815 12.3544 12.3564C12.9795 11.7313 13.3307 10.8834 13.3307 9.99935C13.3307 9.11529 12.9795 8.26745 12.3544 7.64233C11.7293 7.0172 10.8815 6.66602 9.9974 6.66602C9.11334 6.66602 8.26549 7.0172 7.64037 7.64233C7.01525 8.26745 6.66406 9.11529 6.66406 9.99935Z" stroke="#222222" stroke-width="1.25" stroke-linecap="round" stroke-linejoin="round"/>
<path d="M14.1641 4.16602H15.8307C16.2728 4.16602 16.6967 4.34161 17.0092 4.65417C17.3218 4.96673 17.4974 5.39065 17.4974 5.83268V14.166C17.4974 14.608 17.3218 15.032 17.0092 15.3445C16.6967 15.6571 16.2728 15.8327 15.8307 15.8327H14.1641" stroke="#222222" stroke-width="1.25" stroke-linecap="round" stroke-linejoin="round"/>
</svg>
