<svg width="20" height="20" viewBox="0 0 20 20" fill="none" xmlns="http://www.w3.org/2000/svg">
<g clip-path="url(#clip0_2668_14529)">
<path d="M8.75 16.6663H4.16667C3.72464 16.6663 3.30072 16.4907 2.98816 16.1782C2.67559 15.8656 2.5 15.4417 2.5 14.9997V7.49967C2.5 7.05765 2.67559 6.63372 2.98816 6.32116C3.30072 6.0086 3.72464 5.83301 4.16667 5.83301H5C5.44203 5.83301 5.86595 5.65741 6.17851 5.34485C6.49107 5.03229 6.66667 4.60837 6.66667 4.16634C6.66667 3.94533 6.75446 3.73337 6.91074 3.57709C7.06702 3.42081 7.27899 3.33301 7.5 3.33301H12.5C12.721 3.33301 12.933 3.42081 13.0893 3.57709C13.2455 3.73337 13.3333 3.94533 13.3333 4.16634C13.3333 4.60837 13.5089 5.03229 13.8215 5.34485C14.134 5.65741 14.558 5.83301 15 5.83301H15.8333C16.2754 5.83301 16.6993 6.0086 17.0118 6.32116C17.3244 6.63372 17.5 7.05765 17.5 7.49967V9.58301" stroke="#222222" stroke-width="1.25" stroke-linecap="round" stroke-linejoin="round"/>
<path d="M12.1408 9.54183C11.9538 9.23177 11.7016 8.96603 11.4018 8.763C11.102 8.55997 10.7617 8.42449 10.4043 8.36592C10.047 8.30736 9.68124 8.32711 9.33231 8.42382C8.98337 8.52053 8.6596 8.69188 8.3834 8.92602C8.1072 9.16016 7.88516 9.4515 7.73263 9.7799C7.58011 10.1083 7.50073 10.4659 7.50001 10.828C7.49928 11.1901 7.57721 11.548 7.72842 11.877C7.87963 12.206 8.1005 12.4982 8.37576 12.7335" stroke="#222222" stroke-width="1.25" stroke-linecap="round" stroke-linejoin="round"/>
<path d="M14.8286 17.3472L13.0186 18.2956C12.9649 18.3235 12.9045 18.336 12.8441 18.3316C12.7837 18.3272 12.7257 18.3061 12.6766 18.2707C12.6275 18.2352 12.5893 18.1868 12.5661 18.1309C12.5429 18.075 12.5357 18.0137 12.5453 17.9539L12.8911 15.9447L11.427 14.5222C11.3833 14.48 11.3523 14.4263 11.3377 14.3673C11.323 14.3083 11.3253 14.2464 11.3441 14.1886C11.363 14.1308 11.3977 14.0795 11.4443 14.0405C11.491 14.0015 11.5476 13.9764 11.6078 13.9681L13.6311 13.6747L14.5361 11.8472C14.5632 11.7928 14.6049 11.747 14.6566 11.715C14.7083 11.683 14.7679 11.666 14.8286 11.666C14.8894 11.666 14.949 11.683 15.0007 11.715C15.0524 11.747 15.0941 11.7928 15.1211 11.8472L16.0261 13.6747L18.0495 13.9681C18.1095 13.9767 18.1659 14.002 18.2124 14.041C18.2588 14.08 18.2934 14.1313 18.3122 14.1889C18.331 14.2466 18.3333 14.3084 18.3188 14.3673C18.3044 14.4262 18.2737 14.4799 18.2303 14.5222L16.7661 15.9447L17.1111 17.9531C17.1215 18.013 17.1149 18.0745 17.092 18.1309C17.0691 18.1872 17.0309 18.2359 16.9816 18.2716C16.9324 18.3072 16.8742 18.3284 16.8136 18.3326C16.7529 18.3369 16.6923 18.324 16.6386 18.2956L14.8286 17.3472Z" stroke="#222222" stroke-width="1.25" stroke-linecap="round" stroke-linejoin="round"/>
</g>
<defs>
<clipPath id="clip0_2668_14529">
<rect width="20" height="20" fill="white"/>
</clipPath>
</defs>
</svg>
