<svg width="20" height="20" viewBox="0 0 20 20" fill="none" xmlns="http://www.w3.org/2000/svg">
<g clip-path="url(#clip0_4267_9499)">
<path d="M5.625 3.51758V3.50879C5.625 3.16361 5.90482 2.88379 6.25 2.88379C6.59518 2.88379 6.875 3.16361 6.875 3.50879V3.51758L6.8623 3.64355C6.80385 3.92813 6.55187 4.14258 6.25 4.14258C5.90497 4.14258 5.62525 3.86255 5.625 3.51758Z" stroke="#4B5563" stroke-width="1.25" stroke-linecap="round" stroke-linejoin="round"/>
<path d="M2.88281 6.25879V6.25C2.88281 5.90482 3.16263 5.625 3.50781 5.625C3.85299 5.625 4.13281 5.90482 4.13281 6.25V6.25879L4.12012 6.38477C4.06166 6.66934 3.80968 6.88379 3.50781 6.88379C3.16279 6.88379 2.88306 6.60376 2.88281 6.25879Z" stroke="#4B5563" stroke-width="1.25" stroke-linecap="round" stroke-linejoin="round"/>
<path d="M1.875 10.0088V10C1.875 9.65482 2.15482 9.375 2.5 9.375C2.84518 9.375 3.125 9.65482 3.125 10V10.0088L3.1123 10.1348C3.05385 10.4193 2.80187 10.6338 2.5 10.6338C2.15497 10.6338 1.87525 10.3538 1.875 10.0088Z" stroke="#4B5563" stroke-width="1.25" stroke-linecap="round" stroke-linejoin="round"/>
<path d="M2.88281 13.7588V13.75C2.88281 13.4048 3.16263 13.125 3.50781 13.125C3.85299 13.125 4.13281 13.4048 4.13281 13.75V13.7588L4.12012 13.8848C4.06166 14.1693 3.80968 14.3838 3.50781 14.3838C3.16279 14.3838 2.88306 14.1038 2.88281 13.7588Z" stroke="#4B5563" stroke-width="1.25" stroke-linecap="round" stroke-linejoin="round"/>
<path d="M5.625 16.5V16.4912C5.625 16.146 5.90482 15.8662 6.25 15.8662C6.59518 15.8662 6.875 16.146 6.875 16.4912V16.5L6.8623 16.626C6.80385 16.9106 6.55187 17.125 6.25 17.125C5.90497 17.125 5.62525 16.845 5.625 16.5Z" stroke="#4B5563" stroke-width="1.25" stroke-linecap="round" stroke-linejoin="round"/>
<path d="M9.375 17.5088V17.5C9.375 17.1548 9.65482 16.875 10 16.875C10.3452 16.875 10.625 17.1548 10.625 17.5V17.5088L10.6123 17.6348C10.5539 17.9193 10.3019 18.1338 10 18.1338C9.65497 18.1338 9.37525 17.8538 9.375 17.5088Z" stroke="#4B5563" stroke-width="1.25" stroke-linecap="round" stroke-linejoin="round"/>
<path d="M13.125 16.5V16.4912C13.125 16.146 13.4048 15.8662 13.75 15.8662C14.0952 15.8662 14.375 16.146 14.375 16.4912V16.5L14.3623 16.626C14.3039 16.9106 14.0519 17.125 13.75 17.125C13.405 17.125 13.1252 16.845 13.125 16.5Z" stroke="#4B5563" stroke-width="1.25" stroke-linecap="round" stroke-linejoin="round"/>
<path d="M15.8672 13.7588V13.75C15.8672 13.4048 16.147 13.125 16.4922 13.125C16.8374 13.125 17.1172 13.4048 17.1172 13.75V13.7588L17.1045 13.8848C17.046 14.1693 16.7941 14.3838 16.4922 14.3838C16.1472 14.3838 15.8674 14.1038 15.8672 13.7588Z" stroke="#4B5563" stroke-width="1.25" stroke-linecap="round" stroke-linejoin="round"/>
<path d="M16.875 10.0088V10C16.875 9.65482 17.1548 9.375 17.5 9.375C17.8452 9.375 18.125 9.65482 18.125 10V10.0088L18.1123 10.1348C18.0539 10.4193 17.8019 10.6338 17.5 10.6338C17.155 10.6338 16.8752 10.3538 16.875 10.0088Z" stroke="#4B5563" stroke-width="1.25" stroke-linecap="round" stroke-linejoin="round"/>
<path d="M15.8672 6.25879V6.25C15.8672 5.90482 16.147 5.625 16.4922 5.625C16.8374 5.625 17.1172 5.90482 17.1172 6.25V6.25879L17.1045 6.38477C17.046 6.66934 16.7941 6.88379 16.4922 6.88379C16.1472 6.88379 15.8674 6.60376 15.8672 6.25879Z" stroke="#4B5563" stroke-width="1.25" stroke-linecap="round" stroke-linejoin="round"/>
<path d="M13.125 3.51758V3.50879C13.125 3.16361 13.4048 2.88379 13.75 2.88379C14.0952 2.88379 14.375 3.16361 14.375 3.50879V3.51758L14.3623 3.64355C14.3039 3.92813 14.0519 4.14258 13.75 4.14258C13.405 4.14258 13.1252 3.86255 13.125 3.51758Z" stroke="#4B5563" stroke-width="1.25" stroke-linecap="round" stroke-linejoin="round"/>
<path d="M9.375 2.50879V2.5C9.375 2.15482 9.65482 1.875 10 1.875C10.3452 1.875 10.625 2.15482 10.625 2.5V2.50879L10.6123 2.63477C10.5539 2.91934 10.3019 3.13379 10 3.13379C9.65497 3.13379 9.37525 2.85376 9.375 2.50879Z" stroke="#4B5563" stroke-width="1.25" stroke-linecap="round" stroke-linejoin="round"/>
</g>
<defs>
<clipPath id="clip0_4267_9499">
<rect width="20" height="20" fill="white"/>
</clipPath>
</defs>
</svg>
