<svg width="20" height="21" viewBox="0 0 20 21" fill="none" xmlns="http://www.w3.org/2000/svg">
<path d="M14.9609 8.5L13.7293 15.7417L13.7279 15.7498C13.5205 16.9635 13.4166 17.5716 12.9493 17.9342C11.9493 18.71 7.91677 18.6675 6.9726 17.9342C6.50427 17.5708 6.4001 16.9608 6.1926 15.7408L4.96094 8.5H14.9609Z" fill="#FFC5F2"/>
<path d="M13.7293 15.7417L14.9609 8.5H4.96094L6.1926 15.7408C6.4001 16.9608 6.50427 17.5708 6.9726 17.9342C7.91677 18.6675 11.9493 18.71 12.9493 17.9342C13.4166 17.5716 13.5205 16.9635 13.7279 15.7498M13.7293 15.7417L13.7279 15.7498M13.7293 15.7417C13.7288 15.7444 13.7283 15.7471 13.7279 15.7498" stroke="#FFC5F2" stroke-width="4.16667" stroke-linecap="round" stroke-linejoin="round"/>
<path d="M5 8.50021L5.42833 7.42854C5.79362 6.51465 6.42442 5.73122 7.23932 5.17935C8.05422 4.62749 9.01582 4.33252 10 4.33252C10.9842 4.33252 11.9458 4.62749 12.7607 5.17935C13.5756 5.73122 14.2064 6.51465 14.5717 7.42854L15 8.50021" stroke="#FFC5F2" stroke-width="4.16667" stroke-linecap="round" stroke-linejoin="round"/>
<path d="M4.16406 8.5H15.8307" stroke="#FFC5F2" stroke-width="4.16667" stroke-linecap="round" stroke-linejoin="round"/>
<path d="M10 8.49984L13.3333 2.6665" stroke="#FFC5F2" stroke-width="4.16667" stroke-linecap="round" stroke-linejoin="round"/>
<path d="M5.83594 12.6663C6.3301 13.2013 7.0726 13.5138 7.91927 13.4996C8.76594 13.5138 9.50844 13.2013 10.0026 12.6663C10.4968 12.1313 11.2393 11.8188 12.0859 11.833C12.9326 11.8188 13.6751 12.1313 14.1693 12.6663" stroke="#FFC5F2" stroke-width="4.16667" stroke-linecap="round" stroke-linejoin="round"/>
<path d="M14.9609 8.5L13.7293 15.7417C13.5209 16.9608 13.4176 17.5708 12.9493 17.9342C11.9493 18.71 7.91677 18.6675 6.9726 17.9342C6.50427 17.5708 6.4001 16.9608 6.1926 15.7408L4.96094 8.5" stroke="#FB5CD8" stroke-width="1.66667" stroke-linecap="round" stroke-linejoin="round"/>
<path d="M5 8.50021L5.42833 7.42854C5.79362 6.51465 6.42442 5.73122 7.23932 5.17935C8.05422 4.62749 9.01582 4.33252 10 4.33252C10.9842 4.33252 11.9458 4.62749 12.7607 5.17935C13.5756 5.73122 14.2064 6.51465 14.5717 7.42854L15 8.50021" stroke="#FB5CD8" stroke-width="1.66667" stroke-linecap="round" stroke-linejoin="round"/>
<path d="M4.16406 8.5H15.8307" stroke="#FB5CD8" stroke-width="1.66667" stroke-linecap="round" stroke-linejoin="round"/>
<path d="M10 8.49984L13.3333 2.6665" stroke="#FB5CD8" stroke-width="1.66667" stroke-linecap="round" stroke-linejoin="round"/>
<path d="M5.83594 12.6663C6.3301 13.2013 7.0726 13.5138 7.91927 13.4996C8.76594 13.5138 9.50844 13.2013 10.0026 12.6663C10.4968 12.1313 11.2393 11.8188 12.0859 11.833C12.9326 11.8188 13.6751 12.1313 14.1693 12.6663" stroke="#FB5CD8" stroke-width="1.66667" stroke-linecap="round" stroke-linejoin="round"/>
</svg>
