<svg width="20" height="20" viewBox="0 0 20 20" fill="none" xmlns="http://www.w3.org/2000/svg">
<g clip-path="url(#clip0_4267_643)">
<path d="M4.16927 3.3335H7.5026C7.72362 3.3335 7.93558 3.42129 8.09186 3.57757C8.24814 3.73385 8.33594 3.94582 8.33594 4.16683V9.16683C8.33594 9.38784 8.24814 9.5998 8.09186 9.75608C7.93558 9.91236 7.72362 10.0002 7.5026 10.0002H4.16927C3.94826 10.0002 3.7363 9.91236 3.58002 9.75608C3.42374 9.5998 3.33594 9.38784 3.33594 9.16683V4.16683C3.33594 3.94582 3.42374 3.73385 3.58002 3.57757C3.7363 3.42129 3.94826 3.3335 4.16927 3.3335Z" stroke="#4B5563" stroke-width="1.5" stroke-linecap="round" stroke-linejoin="round"/>
<path d="M4.16927 13.3335H7.5026C7.72362 13.3335 7.93558 13.4213 8.09186 13.5776C8.24814 13.7339 8.33594 13.9458 8.33594 14.1668V15.8335C8.33594 16.0545 8.24814 16.2665 8.09186 16.4228C7.93558 16.579 7.72362 16.6668 7.5026 16.6668H4.16927C3.94826 16.6668 3.7363 16.579 3.58002 16.4228C3.42374 16.2665 3.33594 16.0545 3.33594 15.8335V14.1668C3.33594 13.9458 3.42374 13.7339 3.58002 13.5776C3.7363 13.4213 3.94826 13.3335 4.16927 13.3335Z" stroke="#4B5563" stroke-width="1.5" stroke-linecap="round" stroke-linejoin="round"/>
<path d="M12.4974 10H15.8307C16.0517 10 16.2637 10.0878 16.42 10.2441C16.5763 10.4004 16.6641 10.6123 16.6641 10.8333V15.8333C16.6641 16.0543 16.5763 16.2663 16.42 16.4226C16.2637 16.5789 16.0517 16.6667 15.8307 16.6667H12.4974C12.2764 16.6667 12.0644 16.5789 11.9081 16.4226C11.7519 16.2663 11.6641 16.0543 11.6641 15.8333V10.8333C11.6641 10.6123 11.7519 10.4004 11.9081 10.2441C12.0644 10.0878 12.2764 10 12.4974 10Z" stroke="#4B5563" stroke-width="1.5" stroke-linecap="round" stroke-linejoin="round"/>
<path d="M12.4974 3.3335H15.8307C16.0517 3.3335 16.2637 3.42129 16.42 3.57757C16.5763 3.73385 16.6641 3.94582 16.6641 4.16683V5.8335C16.6641 6.05451 16.5763 6.26647 16.42 6.42275C16.2637 6.57903 16.0517 6.66683 15.8307 6.66683H12.4974C12.2764 6.66683 12.0644 6.57903 11.9081 6.42275C11.7519 6.26647 11.6641 6.05451 11.6641 5.8335V4.16683C11.6641 3.94582 11.7519 3.73385 11.9081 3.57757C12.0644 3.42129 12.2764 3.3335 12.4974 3.3335Z" stroke="#4B5563" stroke-width="1.5" stroke-linecap="round" stroke-linejoin="round"/>
</g>
<defs>
<clipPath id="clip0_4267_643">
<rect width="20" height="20" fill="white"/>
</clipPath>
</defs>
</svg>
