<svg width="20" height="20" viewBox="0 0 20 20" fill="none" xmlns="http://www.w3.org/2000/svg">
<path d="M10 15V18.3333" stroke="#4B5563" stroke-width="1.25" stroke-linecap="round" stroke-linejoin="round"/>
<path d="M7.08594 18.333L7.35945 18.0594C7.84117 17.5777 8.08204 17.3368 8.38835 17.2099C8.69469 17.083 9.03527 17.083 9.7166 17.083H10.2884C10.9697 17.083 11.3103 17.083 11.6166 17.2098C11.9229 17.3368 12.1637 17.5776 12.6454 18.0593L12.9191 18.333" stroke="#4B5563" stroke-width="1.25" stroke-linecap="round" stroke-linejoin="round"/>
<path d="M2 9.99935C2 12.3563 2 13.5348 2.73223 14.2671C3.46447 14.9993 4.64297 14.9993 7 14.9993H12.8333C15.1903 14.9993 16.3688 14.9993 17.1011 14.2671C17.8333 13.5348 17.8333 12.3563 17.8333 9.99935V6.66602C17.8333 4.30899 17.8333 3.13048 17.1011 2.39825C16.3688 1.66602 15.1903 1.66602 12.8333 1.66602H7C4.64297 1.66602 3.46447 1.66602 2.73223 2.39825C2 3.13048 2 4.30899 2 6.66602V9.99935Z" stroke="#4B5563" stroke-width="1.25"/>
<path d="M6.66406 10.833V8.33301M9.9974 10.833V5.83301M13.3307 10.833V9.16634" stroke="#4B5563" stroke-width="1.25" stroke-linecap="round"/>
</svg>
