<svg width="189" height="189" viewBox="0 0 189 189" fill="none" xmlns="http://www.w3.org/2000/svg">
<path d="M142.234 56.63C142.392 57.2208 142.743 57.7488 143.214 58.1244L143.643 58.4028L148.972 61.4851L149.488 61.7896C154.788 64.9998 158.726 70.057 160.533 75.999C162.399 82.1325 161.856 88.7469 159.013 94.4933L158.977 94.5666L158.939 94.6376L158.3 95.8259L158.266 95.8885L155.091 101.388L154.98 101.602C154.752 102.091 154.668 102.635 154.736 103.172L154.841 103.681L156.456 109.71L156.604 110.293C158.07 116.333 157.25 122.711 154.29 128.193C151.235 133.851 146.13 138.126 140.024 140.141L139.957 140.163L138.777 140.515L138.713 140.534L132.494 142.2L132.264 142.272C131.766 142.452 131.328 142.768 130.996 143.183L130.718 143.611L127.629 148.953C124.439 154.507 119.251 158.636 113.123 160.5C106.99 162.366 100.376 161.823 94.6291 158.98L94.5558 158.945L94.4848 158.906L93.2964 158.267L93.2338 158.233L93.1707 158.197L87.7344 155.058C87.193 154.748 86.566 154.625 85.948 154.704L85.4412 154.808L79.4127 156.423C73.2011 158.088 66.5878 157.313 60.9293 154.257C55.2709 151.202 50.9961 146.098 48.981 139.991L48.9591 139.924L48.6076 138.744L48.5885 138.681L46.9221 132.461L46.8502 132.231C46.6705 131.733 46.354 131.295 45.9385 130.964L45.51 130.685L40.1691 127.596L40.1689 127.595C34.6154 124.405 30.4862 119.218 28.6219 113.091C26.7559 106.957 27.2994 100.343 30.1419 94.5963L30.1779 94.5229L30.2165 94.4519L30.8555 93.2636L30.8893 93.201L34.0643 87.7016C34.3743 87.1605 34.4961 86.534 34.4181 85.9164L34.314 85.4074L32.682 79.3166L32.6667 79.252L32.3812 78.0546L32.3668 77.9857C31.1085 71.9315 32.1221 65.6263 35.2139 60.2712C38.3057 54.916 43.2594 50.8856 49.1316 48.9482L49.1985 48.9263L50.3782 48.5748L50.4418 48.5557L56.6609 46.8893C57.2533 46.7303 57.7761 46.3841 58.1576 45.9059L58.4361 45.4774L61.5262 40.1363C63.1761 37.2635 65.3768 34.7442 68.002 32.7233C70.6318 30.6989 73.6361 29.2143 76.8416 28.3549L76.8425 28.3547L77.398 28.2129C83.1466 26.8123 89.2121 27.4796 94.5261 30.1091L94.5994 30.1451L94.6704 30.1837L95.8587 30.8227L95.9214 30.8564L101.421 34.0315L101.634 34.1421C102.124 34.3702 102.668 34.4532 103.206 34.3852L103.714 34.2815L109.743 32.6661L110.326 32.518C116.366 31.0527 122.744 31.872 128.226 34.8321C133.884 37.8875 138.159 42.992 140.174 49.0988L140.196 49.1657L140.548 50.3454L140.567 50.409L142.234 56.63Z" fill="#5F000C" stroke="#FF0021" stroke-width="9.5625"/>
<path d="M78.0795 32.9736C82.869 31.6906 87.9619 32.1959 92.4059 34.395L93.5934 35.0338L99.0433 38.1802C100.537 39.0361 102.275 39.3631 103.978 39.1085L104.822 38.9351L110.98 37.2851C116.012 35.9364 121.37 36.5641 125.954 39.0395C130.538 41.5148 134.001 45.6502 135.634 50.5976L135.965 51.7101L137.615 57.8678C138.06 59.5304 139.061 60.9981 140.43 62.0174L141.149 62.4847L146.592 65.6328C151.098 68.2169 154.448 72.4221 155.959 77.391C157.471 82.3599 157.031 87.7183 154.728 92.3736L154.089 93.5611L150.943 99.011C150.087 100.505 149.76 102.243 150.014 103.946L150.188 104.79L151.838 110.948C153.186 115.98 152.559 121.338 150.083 125.922C147.608 130.506 143.473 133.969 138.525 135.602L137.413 135.933L131.255 137.583C129.595 138.028 128.133 139.02 127.105 140.397L126.638 141.116L123.49 146.56C120.906 151.065 116.701 154.415 111.732 155.927C106.763 157.439 101.405 156.998 96.7492 154.696L95.5617 154.057L90.1119 150.91C88.6183 150.054 86.8797 149.727 85.1772 149.982L84.3327 150.155L78.1749 151.805C73.1427 153.154 67.7853 152.526 63.2011 150.051C58.617 147.576 55.1536 143.44 53.5212 138.493L53.1901 137.38L51.5401 131.223C51.0947 129.563 50.1032 128.101 48.7255 127.073L48.0063 126.606L42.5627 123.458C38.0574 120.874 34.7074 116.668 33.1957 111.7C31.684 106.731 32.1245 101.372 34.4273 96.7169L35.0661 95.5294L38.2125 90.0795C39.0684 88.586 39.3954 86.8474 39.1409 85.1449L38.9674 84.3004L37.3174 78.1426L37.0479 77.0136C36.0284 72.1089 36.8492 67.0004 39.354 62.6619C41.8588 58.3235 45.8725 55.0583 50.6299 53.4889L51.7424 53.1578L57.9001 51.5078C59.5602 51.0624 61.022 50.0709 62.0497 48.6932L62.517 47.974L65.6651 42.5304C67.0025 40.1979 68.7878 38.1528 70.9183 36.5127C73.0488 34.8726 75.4825 33.6699 78.0795 32.9736ZM112.86 71.7146C111.396 70.8696 109.656 70.6407 108.023 71.0782C106.39 71.5158 104.998 72.5839 104.153 74.0477L89.3069 99.7524L79.2132 93.93L78.4974 93.574C77.0033 92.9486 75.3272 92.9154 73.8095 93.4811C72.2918 94.0468 71.0463 95.1689 70.3261 96.6197C69.6058 98.0704 69.4647 99.7408 69.9314 101.292C70.3982 102.843 71.4378 104.158 72.8391 104.97L88.4546 113.986L89.1704 114.342C90.6014 114.943 92.2028 115.002 93.6741 114.507C95.1454 114.012 96.3855 112.997 97.1617 111.653L115.193 80.4217L115.549 79.7059C116.151 78.2749 116.209 76.6735 115.714 75.2022C115.219 73.7309 114.204 72.4909 112.86 71.7146Z" fill="#5F000C"/>
<path d="M103.41 127.752L103.42 127.79" stroke="#FF0021" stroke-width="15.3" stroke-linecap="round" stroke-linejoin="round"/>
<path d="M97.4697 105.584L87.5698 68.6372" stroke="#FF0021" stroke-width="15.3" stroke-linecap="round" stroke-linejoin="round"/>
</svg>
