<svg width="20" height="20" viewBox="0 0 20 20" fill="none" xmlns="http://www.w3.org/2000/svg">
<g clip-path="url(#clip0_3426_17656)">
<path d="M5.83594 3.33301V17.4997M3.33594 3.33301V5.83301C3.33594 6.16131 3.4006 6.4864 3.52624 6.78972C3.65188 7.09303 3.83602 7.36863 4.06817 7.60078C4.30032 7.83292 4.57591 8.01707 4.87923 8.14271C5.18254 8.26834 5.50763 8.33301 5.83594 8.33301C6.16424 8.33301 6.48933 8.26834 6.79265 8.14271C7.09596 8.01707 7.37156 7.83292 7.6037 7.60078C7.83585 7.36863 8.02 7.09303 8.14564 6.78972C8.27127 6.4864 8.33594 6.16131 8.33594 5.83301V3.33301" stroke="#85FF67" stroke-width="4.16667" stroke-linecap="round" stroke-linejoin="round"/>
<path d="M11.6641 6.66634C11.6641 7.5504 11.9275 8.39824 12.3963 9.02336C12.8651 9.64849 13.501 9.99967 14.1641 9.99967C14.8271 9.99967 15.463 9.64849 15.9318 9.02336C16.4007 8.39824 16.6641 7.5504 16.6641 6.66634C16.6641 5.78229 16.4007 4.93444 15.9318 4.30932C15.463 3.6842 14.8271 3.33301 14.1641 3.33301C13.501 3.33301 12.8651 3.6842 12.3963 4.30932C11.9275 4.93444 11.6641 5.78229 11.6641 6.66634Z" stroke="#85FF67" stroke-width="4.16667" stroke-linecap="round" stroke-linejoin="round"/>
<path d="M14.1641 10V17.5" stroke="#85FF67" stroke-width="4.16667" stroke-linecap="round" stroke-linejoin="round"/>
<path d="M5.83594 3.33301V17.4997M3.33594 3.33301V5.83301C3.33594 6.16131 3.4006 6.4864 3.52624 6.78972C3.65188 7.09303 3.83602 7.36863 4.06817 7.60078C4.30032 7.83292 4.57591 8.01707 4.87923 8.14271C5.18254 8.26834 5.50763 8.33301 5.83594 8.33301C6.16424 8.33301 6.48933 8.26834 6.79265 8.14271C7.09596 8.01707 7.37156 7.83292 7.6037 7.60078C7.83585 7.36863 8.02 7.09303 8.14564 6.78972C8.27127 6.4864 8.33594 6.16131 8.33594 5.83301V3.33301" stroke="#0D3F00" stroke-width="1.66667" stroke-linecap="round" stroke-linejoin="round"/>
<path d="M11.6641 6.66634C11.6641 7.5504 11.9275 8.39824 12.3963 9.02336C12.8651 9.64849 13.501 9.99967 14.1641 9.99967C14.8271 9.99967 15.463 9.64849 15.9318 9.02336C16.4007 8.39824 16.6641 7.5504 16.6641 6.66634C16.6641 5.78229 16.4007 4.93444 15.9318 4.30932C15.463 3.6842 14.8271 3.33301 14.1641 3.33301C13.501 3.33301 12.8651 3.6842 12.3963 4.30932C11.9275 4.93444 11.6641 5.78229 11.6641 6.66634Z" fill="#85FF67" stroke="#0D3F00" stroke-width="1.66667" stroke-linecap="round" stroke-linejoin="round"/>
<path d="M14.1641 10V17.5" stroke="#0D3F00" stroke-width="1.66667" stroke-linecap="round" stroke-linejoin="round"/>
</g>
<defs>
<clipPath id="clip0_3426_17656">
<rect width="20" height="20" fill="white"/>
</clipPath>
</defs>
</svg>
