<svg width="20" height="20" viewBox="0 0 20 20" fill="none" xmlns="http://www.w3.org/2000/svg">
<g clip-path="url(#clip0_3426_17680)">
<path d="M2.5 7.49984C2.5 7.27882 2.5878 7.06686 2.74408 6.91058C2.90036 6.7543 3.11232 6.6665 3.33333 6.6665H16.6667C16.8877 6.6665 17.0996 6.7543 17.2559 6.91058C17.4122 7.06686 17.5 7.27882 17.5 7.49984V9.1665C17.5 9.38752 17.4122 9.59948 17.2559 9.75576C17.0996 9.91204 16.8877 9.99984 16.6667 9.99984H3.33333C3.11232 9.99984 2.90036 9.91204 2.74408 9.75576C2.5878 9.59948 2.5 9.38752 2.5 9.1665V7.49984Z" stroke="#FFACAC" stroke-width="4.16667" stroke-linecap="round" stroke-linejoin="round"/>
<path d="M10 6.6665V17.4998" stroke="#FFACAC" stroke-width="4.16667" stroke-linecap="round" stroke-linejoin="round"/>
<path d="M15.8307 10V15.8333C15.8307 16.2754 15.6551 16.6993 15.3426 17.0118C15.03 17.3244 14.6061 17.5 14.1641 17.5H5.83073C5.3887 17.5 4.96478 17.3244 4.65222 17.0118C4.33966 16.6993 4.16406 16.2754 4.16406 15.8333V10H15.8307Z" fill="#FFACAC" stroke="#FFACAC" stroke-width="4.16667" stroke-linecap="round" stroke-linejoin="round"/>
<path d="M6.2474 6.66703C5.69486 6.66703 5.16496 6.44754 4.77426 6.05684C4.38356 5.66614 4.16406 5.13623 4.16406 4.5837C4.16406 4.03116 4.38356 3.50126 4.77426 3.11056C5.16496 2.71986 5.69486 2.50036 6.2474 2.50036C7.0513 2.48636 7.83908 2.87641 8.50801 3.61966C9.17694 4.36292 9.69596 5.42487 9.9974 6.66703C10.2988 5.42487 10.8179 4.36292 11.4868 3.61966C12.1557 2.87641 12.9435 2.48636 13.7474 2.50036C14.2999 2.50036 14.8298 2.71986 15.2205 3.11056C15.6112 3.50126 15.8307 4.03116 15.8307 4.5837C15.8307 5.13623 15.6112 5.66614 15.2205 6.05684C14.8298 6.44754 14.2999 6.66703 13.7474 6.66703" stroke="#FFACAC" stroke-width="4.16667" stroke-linecap="round" stroke-linejoin="round"/>
<path d="M2.5 7.49984C2.5 7.27882 2.5878 7.06686 2.74408 6.91058C2.90036 6.7543 3.11232 6.6665 3.33333 6.6665H16.6667C16.8877 6.6665 17.0996 6.7543 17.2559 6.91058C17.4122 7.06686 17.5 7.27882 17.5 7.49984V9.1665C17.5 9.38752 17.4122 9.59948 17.2559 9.75576C17.0996 9.91204 16.8877 9.99984 16.6667 9.99984H3.33333C3.11232 9.99984 2.90036 9.91204 2.74408 9.75576C2.5878 9.59948 2.5 9.38752 2.5 9.1665V7.49984Z" stroke="#F43E3E" stroke-width="1.66667" stroke-linecap="round" stroke-linejoin="round"/>
<path d="M10 6.6665V17.4998" stroke="#F43E3E" stroke-width="1.66667" stroke-linecap="round" stroke-linejoin="round"/>
<path d="M15.8307 10V15.8333C15.8307 16.2754 15.6551 16.6993 15.3426 17.0118C15.03 17.3244 14.6061 17.5 14.1641 17.5H5.83073C5.3887 17.5 4.96478 17.3244 4.65222 17.0118C4.33966 16.6993 4.16406 16.2754 4.16406 15.8333V10" stroke="#F43E3E" stroke-width="1.66667" stroke-linecap="round" stroke-linejoin="round"/>
<path d="M6.2474 6.66703C5.69486 6.66703 5.16496 6.44754 4.77426 6.05684C4.38356 5.66614 4.16406 5.13623 4.16406 4.5837C4.16406 4.03116 4.38356 3.50126 4.77426 3.11056C5.16496 2.71986 5.69486 2.50036 6.2474 2.50036C7.0513 2.48636 7.83908 2.87641 8.50801 3.61966C9.17694 4.36292 9.69596 5.42487 9.9974 6.66703C10.2988 5.42487 10.8179 4.36292 11.4868 3.61966C12.1557 2.87641 12.9435 2.48636 13.7474 2.50036C14.2999 2.50036 14.8298 2.71986 15.2205 3.11056C15.6112 3.50126 15.8307 4.03116 15.8307 4.5837C15.8307 5.13623 15.6112 5.66614 15.2205 6.05684C14.8298 6.44754 14.2999 6.66703 13.7474 6.66703" stroke="#F43E3E" stroke-width="1.66667" stroke-linecap="round" stroke-linejoin="round"/>
</g>
<defs>
<clipPath id="clip0_3426_17680">
<rect width="20" height="20" fill="white"/>
</clipPath>
</defs>
</svg>
