<svg width="20" height="20" viewBox="0 0 20 20" fill="none" xmlns="http://www.w3.org/2000/svg">
<path d="M11.6693 7.08366C11.6693 4.78248 9.80377 2.91699 7.5026 2.91699C5.20142 2.91699 3.33594 4.78248 3.33594 7.08366C3.33594 9.38483 5.20142 11.2503 7.5026 11.2503C9.80377 11.2503 11.6693 9.38483 11.6693 7.08366Z" stroke="#4B5563" stroke-width="1.25" stroke-linecap="round" stroke-linejoin="round"/>
<path d="M13.3307 17.0833C13.3307 13.8617 10.7191 11.25 7.4974 11.25C4.27574 11.25 1.66406 13.8617 1.66406 17.0833" stroke="#4B5563" stroke-width="1.25" stroke-linecap="round" stroke-linejoin="round"/>
<path d="M16.2678 7.44405L16.7078 8.33123C16.7678 8.45476 16.9278 8.57318 17.0628 8.59584L17.8602 8.72943C18.3701 8.81518 18.4901 9.18818 18.1226 9.55609L17.5027 10.1812C17.3977 10.287 17.3402 10.4912 17.3727 10.6373L17.5502 11.4111C17.6902 12.0236 17.3677 12.2605 16.8303 11.9404L16.0828 11.4943C15.9478 11.4137 15.7254 11.4137 15.5879 11.4943L14.8405 11.9404C14.3056 12.2605 13.9806 12.0211 14.1206 11.4111L14.2981 10.6373C14.3305 10.4912 14.2731 10.287 14.1681 10.1812L13.5482 9.55609C13.1832 9.18818 13.3007 8.81518 13.8106 8.72943L14.608 8.59584C14.7405 8.57318 14.9005 8.45476 14.9605 8.33123L15.4004 7.44405C15.6404 6.96266 16.0303 6.96266 16.2678 7.44405Z" stroke="#4B5563" stroke-width="1.25" stroke-linecap="round" stroke-linejoin="round"/>
</svg>
