<svg width="188" height="188" viewBox="0 0 188 188" fill="none" xmlns="http://www.w3.org/2000/svg">
<path d="M141.426 55.8229C141.585 56.4137 141.936 56.9417 142.407 57.3172L142.836 57.5957L148.165 60.678L148.681 60.9824C153.981 64.1926 157.918 69.2499 159.726 75.1919C161.592 81.3253 161.049 87.9397 158.206 93.6862L158.17 93.7595L158.132 93.8305L157.493 95.0188L157.459 95.0814L154.284 100.581L154.173 100.794C153.945 101.283 153.861 101.828 153.929 102.365L154.034 102.874L155.649 108.903L155.797 109.486C157.263 115.526 156.443 121.904 153.483 127.386C150.428 133.044 145.323 137.319 139.216 139.334L139.15 139.356L137.97 139.708L137.906 139.727L131.687 141.393L131.457 141.465C130.959 141.645 130.521 141.96 130.189 142.376L129.911 142.804L126.822 148.146C123.631 153.7 118.444 157.829 112.316 159.693C106.183 161.559 99.5684 161.016 93.822 158.173L93.7486 158.137L93.6776 158.099L92.4893 157.46L92.4267 157.426L92.3636 157.39L86.9273 154.251C86.3858 153.941 85.7588 153.818 85.1409 153.896L84.6341 154.001L78.6055 155.616C72.394 157.281 65.7807 156.506 60.1222 153.45C54.4638 150.395 50.1889 145.29 48.1739 139.184L48.1519 139.117L47.8005 137.937L47.7814 137.873L46.115 131.654L46.0431 131.424C45.8634 130.926 45.5469 130.488 45.1313 130.157L44.7029 129.878L39.362 126.789L39.3617 126.788C33.8083 123.598 29.6791 118.411 27.8148 112.283C25.9488 106.15 26.4922 99.5356 29.3348 93.7891L29.3707 93.7158L29.4093 93.6448L30.0484 92.4565L30.0821 92.3939L33.2572 86.8945C33.5672 86.3533 33.689 85.7268 33.6109 85.1093L33.5069 84.6003L31.8749 78.5095L31.8596 78.4449L31.5741 77.2475L31.5597 77.1786C30.3014 71.1244 31.315 64.8192 34.4068 59.464C37.4986 54.1089 42.4522 50.0784 48.3245 48.1411L48.3914 48.1191L49.5711 47.7676L49.6347 47.7486L55.8538 46.0822C56.4462 45.9232 56.969 45.577 57.3505 45.0988L57.629 44.6703L60.719 39.3292C62.3689 36.4564 64.5697 33.937 67.1949 31.9161C69.8247 29.8918 72.8289 28.4072 76.0344 27.5478L76.0354 27.5475L76.5909 27.4058C82.3395 26.0052 88.405 26.6724 93.719 29.302L93.7923 29.3379L93.8633 29.3765L95.0516 30.0155L95.1142 30.0493L100.614 33.2244L100.827 33.335C101.316 33.5631 101.861 33.6461 102.399 33.5781L102.907 33.4743L108.935 31.859L109.518 31.7108C115.559 30.2455 121.937 31.0648 127.419 34.0249C133.077 37.0804 137.352 42.1849 139.367 48.2917L139.389 48.3586L139.74 49.5383L139.76 49.6019L141.426 55.8229Z" fill="#5E3800" stroke="#FFB648" stroke-width="9.5625"/>
<path d="M77.2724 32.1665C82.0619 30.8835 87.1547 31.3887 91.5988 33.5879L92.7863 34.2266L98.2361 37.3731C99.7297 38.2289 101.468 38.556 103.171 38.3014L104.015 38.1279L110.173 36.478C115.205 35.1293 120.563 35.757 125.147 38.2323C129.731 40.7077 133.194 44.8431 134.827 49.7905L135.158 50.9029L136.808 57.0607C137.253 58.7233 138.254 60.191 139.622 61.2103L140.342 61.6775L145.785 64.8256C150.291 67.4097 153.641 71.6149 155.152 76.5838C156.664 81.5527 156.224 86.9111 153.921 91.5665L153.282 92.754L150.135 98.2038C149.28 99.6974 148.953 101.436 149.207 103.138L149.381 103.983L151.031 110.141C152.379 115.173 151.752 120.53 149.276 125.115C146.801 129.699 142.665 133.162 137.718 134.794L136.606 135.126L130.448 136.776C128.788 137.221 127.326 138.212 126.298 139.59L125.831 140.309L122.683 145.753C120.099 150.258 115.894 153.608 110.925 155.12C105.956 156.632 100.597 156.191 95.9421 153.888L94.7545 153.25L89.3047 150.103C87.8111 149.247 86.0725 148.92 84.3701 149.175L83.5256 149.348L77.3678 150.998C72.3356 152.347 66.9781 151.719 62.394 149.244C57.8099 146.769 54.3465 142.633 52.7141 137.686L52.383 136.573L50.733 130.416C50.2876 128.755 49.2961 127.294 47.9184 126.266L47.1992 125.799L41.7555 122.651C37.2503 120.067 33.9002 115.861 32.3886 110.892C30.8769 105.923 31.3173 100.565 33.6202 95.9098L34.259 94.7222L37.4054 89.2724C38.2612 87.7788 38.5883 86.0402 38.3337 84.3378L38.1602 83.4933L36.5103 77.3355L36.2408 76.2065C35.2212 71.3017 36.0421 66.1933 38.5469 61.8548C41.0517 57.5163 45.0653 54.2512 49.8228 52.6818L50.9352 52.3507L57.093 50.7007C58.7531 50.2553 60.2149 49.2638 61.2426 47.8861L61.7098 47.1669L64.8579 41.7232C66.1953 39.3908 67.9806 37.3457 70.1112 35.7056C72.2417 34.0655 74.6754 32.8628 77.2724 32.1665ZM112.053 70.9075C110.589 70.0625 108.849 69.8336 107.216 70.2711C105.583 70.7086 104.191 71.7767 103.346 73.2406L88.4998 98.9453L78.406 93.1229L77.6903 92.7669C76.1962 92.1415 74.5201 92.1083 73.0024 92.674C71.4847 93.2397 70.2392 94.3618 69.5189 95.8125C68.7986 97.2632 68.6576 98.9337 69.1243 100.485C69.5911 102.036 70.6307 103.351 72.032 104.163L87.6475 113.179L88.3633 113.535C89.7943 114.136 91.3957 114.195 92.867 113.7C94.3383 113.205 95.5784 112.19 96.3546 110.846L114.386 79.6146L114.742 78.8988C115.343 77.4678 115.402 75.8664 114.907 74.3951C114.412 72.9238 113.397 71.6837 112.053 70.9075Z" fill="#5E3800"/>
<g clip-path="url(#clip0_1194_2076)">
<path d="M122.139 106.106C119.925 111.201 116.366 115.597 111.844 118.823C107.322 122.049 102.007 123.983 96.4688 124.418C90.9309 124.853 85.379 123.772 80.4087 121.291C75.4383 118.811 71.237 115.024 68.2552 110.337C65.2735 105.65 63.6238 100.24 63.4831 94.6866C63.3425 89.1334 64.7161 83.6467 67.4567 78.8148C70.1974 73.983 74.2016 69.9883 79.04 67.2592C92.4555 59.7046 109.354 63.1242 118.562 75.4672" stroke="#FFB648" stroke-width="13" stroke-linecap="round" stroke-linejoin="round"/>
<path d="M115.707 56.4329L120.657 74.9062L102.183 79.8561" stroke="#FFB648" stroke-width="13" stroke-linecap="round" stroke-linejoin="round"/>
</g>
<defs>
<clipPath id="clip0_1194_2076">
<rect width="91.8" height="91.8" fill="white" transform="translate(37.8535 61.4539) rotate(-15)"/>
</clipPath>
</defs>
</svg>
