<svg width="20" height="20" viewBox="0 0 20 20" fill="none" xmlns="http://www.w3.org/2000/svg">
<path d="M4.84724 5.34473L3.15487 6.51052C2.42677 6.99592 2.06272 7.23862 1.86543 7.60875C1.66814 7.97889 1.66961 8.41391 1.67252 9.28391C1.67605 10.3313 1.68578 11.3986 1.71274 12.4785C1.77669 15.0407 1.80867 16.3217 2.75067 17.2637C3.69267 18.2058 4.99106 18.2382 7.58782 18.3032C9.20333 18.3435 10.8045 18.3435 12.4199 18.3032C15.0167 18.2382 16.3151 18.2058 17.2571 17.2637C18.1991 16.3217 18.2311 15.0407 18.295 12.4785C18.322 11.3986 18.3317 10.3313 18.3352 9.28391C18.3382 8.41391 18.3396 7.97888 18.1423 7.60875C17.945 7.23862 17.581 6.99592 16.8528 6.51052L15.3602 5.55575" stroke="#4B5563" stroke-width="1.25" stroke-linejoin="round"/>
<path d="M1.66406 8.33301L7.42491 11.7895C8.67823 12.5415 9.3049 12.9175 9.9974 12.9175C10.6899 12.9175 11.3166 12.5415 12.5699 11.7895L18.3307 8.33301" stroke="#4B5563" stroke-width="1.25" stroke-linejoin="round"/>
<path d="M15.2857 9.13998L12.4204 6.04426C12.2971 5.91097 12.1229 5.83512 11.9404 5.83512C11.7677 5.83512 11.6021 5.90309 11.48 6.02399L8.88992 8.58917L7.68822 7.39904C7.5674 7.27935 7.40354 7.21215 7.23268 7.21215C7.04866 7.21215 6.87342 7.29009 6.75117 7.4263L4.71875 9.69079M15.2292 9.06626C15.2857 8.49787 15.2857 7.78201 15.2857 6.86275V5.76113C15.2857 3.68389 15.2857 2.64528 14.6341 1.99996C13.9826 1.35464 13.2084 1.42837 11.1111 1.42837H8.88644C6.78904 1.42837 6.02221 1.42837 5.37063 2.07368C4.71905 2.719 4.71905 3.75761 4.71905 5.83485V6.93647C4.71905 8.18125 4.71905 9.05308 4.85927 9.69079M8.88992 4.45796C8.88992 4.91427 8.51642 5.28418 8.05568 5.28418C7.59495 5.28418 7.22145 4.91427 7.22145 4.45796C7.22145 4.00165 7.59495 3.63174 8.05568 3.63174C8.51642 3.63174 8.88992 4.00165 8.88992 4.45796Z" stroke="#4B5563" stroke-width="1.25" stroke-linecap="round" stroke-linejoin="round"/>
</svg>
