<svg width="20" height="20" viewBox="0 0 20 20" fill="none" xmlns="http://www.w3.org/2000/svg">
<path d="M18.3307 9.63924C18.3307 14.0419 14.5992 17.6115 9.9974 17.6115C9.45631 17.6122 8.91673 17.5622 8.38523 17.4624C8.00267 17.3905 7.81138 17.3546 7.67784 17.375C7.54429 17.3954 7.35505 17.496 6.97655 17.6973C5.90585 18.2667 4.65735 18.4678 3.45665 18.2445C3.91301 17.6832 4.22469 17.0097 4.36221 16.2877C4.44555 15.846 4.23906 15.417 3.9298 15.1029C2.52517 13.6766 1.66406 11.7546 1.66406 9.63924C1.66406 5.23663 5.39555 1.66699 9.9974 1.66699C14.5992 1.66699 18.3307 5.23663 18.3307 9.63924Z" stroke="#4B5563" stroke-width="1.25" stroke-linejoin="round"/>
<path d="M8.33594 8.20545C8.33594 7.35578 9.0821 6.66699 10.0026 6.66699C10.9231 6.66699 11.6693 7.35578 11.6693 8.20545C11.6693 8.51174 11.5724 8.79708 11.4052 9.03683C10.9071 9.75133 10.0026 10.4327 10.0026 11.2824V11.667" stroke="#4B5563" stroke-width="1.25" stroke-linecap="round"/>
<path d="M10 13.75H10.0079" stroke="#4B5563" stroke-width="1.25" stroke-linecap="round" stroke-linejoin="round"/>
</svg>
