<svg width="120" height="120" viewBox="0 0 120 120" fill="none" xmlns="http://www.w3.org/2000/svg">
<path d="M74.9995 48.751C74.6681 48.751 74.3501 48.8829 74.1157 49.1172L57.6509 65.5771L55.0005 68.2266L52.3491 65.5771L45.9683 59.2012L45.7144 58.9766C45.473 58.8104 45.1804 58.7328 44.8872 58.7607C44.5712 58.7909 44.2788 58.9406 44.0688 59.1787C43.8589 59.4168 43.7467 59.7257 43.7563 60.043C43.766 60.3583 43.8952 60.6583 44.1167 60.8828L54.0386 70.8047L54.2876 71.0244C54.5184 71.1846 54.796 71.2638 55.0776 71.2461C55.3814 71.227 55.6681 71.098 55.8833 70.8828L75.7964 50.9688L76.0269 50.708C76.1853 50.478 76.2641 50.202 76.2466 49.9219C76.2275 49.6182 76.0984 49.3314 75.8833 49.1162C75.6489 48.8821 75.3308 48.751 74.9995 48.751ZM103.85 41C103.85 41.4781 104.008 41.9477 104.287 42.3271L104.566 42.6377L107.978 46.0547H107.977C111.537 49.5992 113.613 54.3673 113.782 59.3887C113.95 64.4139 112.196 69.3145 108.876 73.0908L108.833 73.1387L108.79 73.1855L108.065 73.9551L108.026 73.9961L107.986 74.0361L104.504 77.5166L104.505 77.5176C104.162 77.8629 103.942 78.31 103.875 78.791L103.85 79.2061V84.0996L103.844 84.5713C103.728 89.4451 101.812 94.11 98.4565 97.6621C94.9931 101.329 90.2587 103.531 85.2231 103.818L85.1675 103.821L85.1128 103.823L84.2026 103.849L84.1509 103.85H79.1011L78.9126 103.857C78.4989 103.892 78.1025 104.042 77.7671 104.289L77.4702 104.557L74.0444 107.979C70.5001 111.538 65.7322 113.614 60.7114 113.782C55.686 113.951 50.7847 112.196 47.0083 108.876L46.9604 108.834L46.9136 108.79L46.144 108.064L46.103 108.026L42.5815 104.505C42.236 104.162 41.7885 103.941 41.3071 103.874L40.8931 103.85H35.9995C30.9559 103.85 26.1035 101.92 22.437 98.457C18.7704 94.9936 16.5676 90.2583 16.2808 85.2227L16.2778 85.168L16.2759 85.1123L16.2515 84.2031L16.2495 84.1514V79.1006C16.2493 78.6193 16.0932 78.1528 15.8081 77.7666L15.5327 77.4609L12.1206 74.0449V74.0439C8.56107 70.4995 6.48532 65.7317 6.31689 60.7109C6.14835 55.6856 7.90325 50.7851 11.2231 47.0088L11.2651 46.9609L11.3091 46.9141L12.0347 46.1436L12.0728 46.1025L12.1128 46.0635L15.5942 42.582C15.9377 42.2363 16.1569 41.7882 16.2241 41.3066L16.2495 40.8926V35.9482L16.2515 35.8965L16.2759 34.9863L16.2778 34.9316L16.2808 34.877C16.5563 30.0348 18.6042 25.4627 22.0337 22.0332C25.4631 18.6039 30.0344 16.5559 34.8765 16.2803L34.9312 16.2773L34.9868 16.2764L35.897 16.251L35.9478 16.25H40.9985C41.4783 16.2498 41.9431 16.0939 42.3286 15.8105L42.6392 15.5312L46.0552 12.1211C47.8882 10.2798 50.0665 8.81838 52.4653 7.82031C54.8686 6.82043 57.4463 6.30506 60.0493 6.30469H60.0503L60.4995 6.30957C64.9895 6.41202 69.3114 8.04222 72.7505 10.9307L73.0913 11.2236L73.1392 11.2656L73.1851 11.3096L73.9556 12.0342L73.9966 12.0732L74.0366 12.1133L77.5171 15.5947H77.5181C77.8634 15.9376 78.3106 16.1562 78.7915 16.2236L79.2231 16.25H84.1001C89.1436 16.2499 93.9962 18.1793 97.6626 21.6426C101.215 24.9978 103.392 29.5462 103.786 34.4053L103.819 34.876L103.822 34.9316L103.823 34.9863L103.848 35.8965L103.85 35.9482V41Z" fill="black" stroke="#85FF67" stroke-width="7.5"/>
<path d="M60.0496 10.0552C63.9386 10.0554 67.6943 11.472 70.6146 14.0402L71.3846 14.7652L74.8746 18.2552C75.8324 19.2067 77.0832 19.8074 78.4246 19.9602L79.0996 20.0002H84.0996C88.1857 19.9999 92.117 21.563 95.0874 24.3689C98.0579 27.1747 99.8422 31.0107 100.075 35.0902L100.1 36.0002V41.0002C100.1 42.3502 100.56 43.6652 101.39 44.7152L101.84 45.2152L105.325 48.7052C108.213 51.5774 109.898 55.4433 110.034 59.5145C110.171 63.5858 108.749 67.5558 106.06 70.6152L105.335 71.3852L101.845 74.8752C100.893 75.833 100.292 77.0837 100.14 78.4252L100.1 79.1002V84.1002C100.1 88.1863 98.5368 92.1176 95.7309 95.088C92.9251 98.0584 89.0891 99.8428 85.0096 100.075L84.0996 100.1H79.0996C77.7515 100.101 76.4429 100.555 75.3846 101.39L74.8846 101.84L71.3946 105.325C68.5224 108.214 64.6565 109.898 60.5853 110.035C56.514 110.171 52.544 108.75 49.4846 106.06L48.7146 105.335L45.2246 101.845C44.2668 100.894 43.0161 100.293 41.6746 100.14L40.9996 100.1H35.9996C31.9135 100.1 27.9822 98.5373 25.0118 95.7315C22.0414 92.9256 20.257 89.0897 20.0246 85.0102L19.9996 84.1002V79.1002C19.9992 77.7521 19.5448 76.4434 18.7096 75.3852L18.2596 74.8852L14.7746 71.3952C11.886 68.5229 10.2017 64.6571 10.0652 60.5858C9.92858 56.5146 11.35 52.5445 14.0396 49.4852L14.7646 48.7152L18.2546 45.2252C19.2062 44.2674 19.8069 43.0166 19.9596 41.6752L19.9996 41.0002V36.0002L20.0246 35.0902C20.2479 31.1674 21.9067 27.4639 24.6851 24.6856C27.4634 21.9073 31.1668 20.2484 35.0896 20.0252L35.9996 20.0002H40.9996C42.3477 19.9997 43.6564 19.5453 44.7146 18.7102L45.2146 18.2602L48.7046 14.7752C50.1913 13.2796 51.959 12.0927 53.9059 11.2827C55.8529 10.4726 57.9408 10.0555 60.0496 10.0552ZM78.5346 46.4652C77.597 45.5278 76.3254 45.0012 74.9996 45.0012C73.6738 45.0012 72.4023 45.5278 71.4646 46.4652L54.9996 62.9252L48.5346 56.4652L48.0646 56.0502C47.0597 55.2731 45.7966 54.9077 44.532 55.0282C43.2674 55.1487 42.096 55.746 41.2559 56.6988C40.4157 57.6516 39.9697 58.8885 40.0085 60.1583C40.0472 61.428 40.5679 62.6354 41.4646 63.5352L51.4646 73.5352L51.9346 73.9502C52.8966 74.6964 54.0979 75.066 55.313 74.9896C56.5282 74.9132 57.6737 74.3961 58.5346 73.5352L78.5346 53.5352L78.9496 53.0652C79.6959 52.1032 80.0655 50.9019 79.9891 49.6868C79.9127 48.4716 79.3955 47.3261 78.5346 46.4652Z" fill="#008463"/>
</svg>
